<?xml version="1.0" standalone="no"?>
<!DOCTYPE svg PUBLIC "-//W3C//DTD SVG 20010904//EN"
 "http://www.w3.org/TR/2001/REC-SVG-20010904/DTD/svg10.dtd">
<svg version="1.0" xmlns="http://www.w3.org/2000/svg"
 width="26.000000pt" height="26.000000pt" viewBox="0 0 26.000000 26.000000"
 preserveAspectRatio="xMidYMid meet">

<g transform="translate(0.000000,26.000000) scale(0.100000,-0.100000)"
fill="#000000" stroke="none">
<path d="M75 228 c-22 -11 -41 -22 -43 -23 -2 -2 -10 -27 -17 -56 l-14 -53 35
-43 c34 -42 37 -43 94 -43 57 0 60 1 94 43 l35 43 -14 53 c-7 29 -15 54 -17
56 -12 10 -90 45 -100 45 -7 -1 -31 -10 -53 -22z m84 -43 c16 -8 30 -13 32
-10 2 2 5 -11 6 -28 1 -17 8 -34 15 -39 10 -6 9 -8 -3 -8 -9 0 -24 -15 -33
-33 -8 -17 -16 -26 -16 -19 0 7 -13 12 -30 12 -17 0 -30 -5 -30 -12 -1 -7 -7
2 -15 20 -8 19 -21 32 -32 32 -13 0 -14 3 -5 8 7 5 14 22 15 39 1 17 4 30 7
28 3 -2 16 3 30 11 31 17 26 17 59 -1z"/>
<path d="M102 171 c-11 -7 -11 -9 2 -14 10 -4 16 -1 16 8 0 17 -1 17 -18 6z"/>
<path d="M140 165 c0 -9 6 -12 15 -9 8 4 15 7 15 9 0 2 -7 5 -15 9 -9 3 -15 0
-15 -9z"/>
<path d="M80 134 c0 -8 5 -12 10 -9 6 4 8 11 5 16 -9 14 -15 11 -15 -7z"/>
<path d="M165 141 c-3 -5 -1 -12 5 -16 5 -3 10 1 10 9 0 18 -6 21 -15 7z"/>
<path d="M86 95 c4 -8 10 -12 15 -9 14 8 10 24 -6 24 -9 0 -12 -6 -9 -15z"/>
<path d="M152 99 c2 -6 8 -10 13 -10 5 0 11 4 13 10 2 6 -4 11 -13 11 -9 0
-15 -5 -13 -11z"/>
<path d="M116 85 c-4 -10 1 -15 14 -15 13 0 18 5 14 15 -4 8 -10 15 -14 15 -4
0 -10 -7 -14 -15z"/>
</g>
</svg>
