<?xml version="1.0" encoding="UTF-8"?>
<!DOCTYPE svg PUBLIC "-//W3C//DTD SVG 1.1//EN" "http://www.w3.org/Graphics/SVG/1.1/DTD/svg11.dtd">
<svg xmlns="http://www.w3.org/2000/svg" version="1.1" width="26px" height="26px" style="shape-rendering:geometricPrecision; text-rendering:geometricPrecision; image-rendering:optimizeQuality; fill-rule:evenodd; clip-rule:evenodd" xmlns:xlink="http://www.w3.org/1999/xlink">
<g><path style="opacity:1" fill="#346de6" d="M 25.5,14.5 C 25.5,15.1667 25.5,15.8333 25.5,16.5C 23.299,19.0214 20.9657,21.5214 18.5,24C 14.5,24.6667 10.5,24.6667 6.5,24C 4.03431,21.5214 1.70098,19.0214 -0.5,16.5C -0.5,15.8333 -0.5,15.1667 -0.5,14.5C 0.760546,11.7422 1.59388,8.74222 2,5.5C 5.30766,3.4295 8.80766,1.76284 12.5,0.5C 16.1923,1.76284 19.6923,3.4295 23,5.5C 23.4061,8.74222 24.2395,11.7422 25.5,14.5 Z"/></g>
<g><path style="opacity:1" fill="#fbfbfe" d="M 7.5,16.5 C 6.23403,15.9101 4.9007,15.4101 3.5,15C 5.17896,13.1742 6.34563,11.0076 7,8.5C 8.75329,7.37298 10.5866,6.37298 12.5,5.5C 14.4134,6.37298 16.2467,7.37298 18,8.5C 18.6544,11.0076 19.821,13.1742 21.5,15C 18.6108,16.2262 16.7775,18.3929 16,21.5C 13.6667,18.8333 11.3333,18.8333 9,21.5C 8.39233,19.8455 7.89233,18.1789 7.5,16.5 Z"/></g>
<g><path style="opacity:1" fill="#2e6ce6" d="M 10.5,7.5 C 11.9697,10.5572 11.303,11.0572 8.5,9C 9.4158,8.72158 10.0825,8.22158 10.5,7.5 Z"/></g>
<g><path style="opacity:1" fill="#2e6ce6" d="M 13.5,7.5 C 17.0287,8.29732 17.1953,9.29732 14,10.5C 13.5172,9.55198 13.3505,8.55198 13.5,7.5 Z"/></g>
<g><path style="opacity:1" fill="#2d6ce6" d="M 7.5,10.5 C 9.76023,11.2376 9.9269,12.2376 8,13.5C 7.51722,12.552 7.35055,11.552 7.5,10.5 Z"/></g>
<g><path style="opacity:1" fill="#2e6ce6" d="M 16.5,10.5 C 17.5735,11.2506 17.7401,12.2506 17,13.5C 15.2716,12.6477 15.105,11.6477 16.5,10.5 Z"/></g>
<g><path style="opacity:1" fill="#3b72e7" d="M 7.5,16.5 C 7.94835,14.5354 8.94835,14.2021 10.5,15.5C 9.86709,17.5193 8.86709,17.8526 7.5,16.5 Z"/></g>
<g><path style="opacity:1" fill="#2e6ce5" d="M 14.5,14.5 C 17.5476,14.494 18.0476,15.494 16,17.5C 14.9614,16.7562 14.4614,15.7562 14.5,14.5 Z"/></g>
<g><path style="opacity:1" fill="#2e6ce6" d="M 11.5,15.5 C 15.774,17.9572 15.4407,18.7906 10.5,18C 11.2524,17.3292 11.5858,16.4959 11.5,15.5 Z"/></g>
</svg>
