<?xml version="1.0" standalone="no"?>
<!DOCTYPE svg PUBLIC "-//W3C//DTD SVG 20010904//EN"
 "http://www.w3.org/TR/2001/REC-SVG-20010904/DTD/svg10.dtd">
<svg version="1.0" xmlns="http://www.w3.org/2000/svg"
 width="26.000000pt" height="26.000000pt" viewBox="0 0 26.000000 26.000000"
 preserveAspectRatio="xMidYMid meet">

<g transform="translate(0.000000,26.000000) scale(0.100000,-0.100000)"
fill="#000000" stroke="none">
<path d="M164 236 c-4 -10 -17 -12 -45 -9 -31 5 -47 1 -69 -16 -16 -11 -34
-21 -40 -21 -13 0 -13 -6 0 -30 8 -15 17 -18 38 -14 30 6 82 -26 82 -51 0 -19
-40 -30 -51 -14 -11 19 -22 4 -14 -20 8 -27 48 -28 75 -1 13 13 20 15 20 7 0
-7 -5 -18 -12 -25 -9 -9 -9 -12 3 -12 10 -1 9 -5 -5 -15 -11 -8 -15 -15 -9
-15 6 0 25 12 42 26 25 21 30 22 25 7 -6 -16 -5 -16 9 2 9 11 17 27 17 35 0
12 2 12 9 2 6 -10 10 -8 14 10 10 37 8 58 -10 95 -15 33 -17 34 -24 14 -5 -11
-13 -21 -18 -21 -7 0 -7 8 -2 23 9 24 -2 57 -20 57 -5 0 -12 -6 -15 -14z"/>
</g>
</svg>
