<?xml version="1.0" encoding="UTF-8"?>
<!DOCTYPE svg PUBLIC "-//W3C//DTD SVG 1.1//EN" "http://www.w3.org/Graphics/SVG/1.1/DTD/svg11.dtd">
<svg xmlns="http://www.w3.org/2000/svg" version="1.1" width="26px" height="26px" style="shape-rendering:geometricPrecision; text-rendering:geometricPrecision; image-rendering:optimizeQuality; fill-rule:evenodd; clip-rule:evenodd" xmlns:xlink="http://www.w3.org/1999/xlink">
<g><path style="opacity:1" fill="#fefdfd" d="M -0.5,-0.5 C 4.5,-0.5 9.5,-0.5 14.5,-0.5C 15.2916,0.966905 15.2916,2.30024 14.5,3.5C 11.8971,2.43828 9.23046,2.27161 6.5,3C 4.47317,4.87933 2.13983,6.04599 -0.5,6.5C -0.5,4.16667 -0.5,1.83333 -0.5,-0.5 Z"/></g>
<g><path style="opacity:1" fill="#fef9fa" d="M 17.5,-0.5 C 20.1667,-0.5 22.8333,-0.5 25.5,-0.5C 25.5,3.16667 25.5,6.83333 25.5,10.5C 24.6252,8.43191 23.4585,6.43191 22,4.5C 21.9736,7.10468 20.807,8.27134 18.5,8C 20.9211,4.95184 20.5878,2.11851 17.5,-0.5 Z"/></g>
<g><path style="opacity:1" fill="#e12c51" d="M 14.5,-0.5 C 15.5,-0.5 16.5,-0.5 17.5,-0.5C 20.5878,2.11851 20.9211,4.95184 18.5,8C 20.807,8.27134 21.9736,7.10468 22,4.5C 23.4585,6.43191 24.6252,8.43191 25.5,10.5C 25.5,12.8333 25.5,15.1667 25.5,17.5C 24.7784,17.9175 24.2784,18.5842 24,19.5C 23.6667,18.8333 23.3333,18.1667 23,17.5C 22.4389,19.7254 21.4389,21.7254 20,23.5C 19.6667,22.8333 19.3333,22.1667 19,21.5C 17.871,23.1412 16.371,24.1412 14.5,24.5C 15.9526,23.1751 15.6192,22.3418 13.5,22C 14.4506,21.2825 14.6172,20.4491 14,19.5C 10.3307,22.6719 7.49734,22.1719 5.5,18C 5.83333,17.5 6.16667,17 6.5,16.5C 7.86026,18.8484 9.52692,19.0151 11.5,17C 12.4506,16.2825 12.6172,15.4491 12,14.5C 9.42462,11.3624 6.25796,10.3624 2.5,11.5C 1.26501,10.6602 0.265012,9.66023 -0.5,8.5C -0.5,7.83333 -0.5,7.16667 -0.5,6.5C 2.13983,6.04599 4.47317,4.87933 6.5,3C 9.23046,2.27161 11.8971,2.43828 14.5,3.5C 15.2916,2.30024 15.2916,0.966905 14.5,-0.5 Z"/></g>
<g><path style="opacity:1" fill="#fefcfc" d="M -0.5,8.5 C 0.265012,9.66023 1.26501,10.6602 2.5,11.5C 6.25796,10.3624 9.42462,11.3624 12,14.5C 12.6172,15.4491 12.4506,16.2825 11.5,17C 9.52692,19.0151 7.86026,18.8484 6.5,16.5C 6.16667,17 5.83333,17.5 5.5,18C 7.49734,22.1719 10.3307,22.6719 14,19.5C 14.6172,20.4491 14.4506,21.2825 13.5,22C 15.6192,22.3418 15.9526,23.1751 14.5,24.5C 13.5084,24.3284 12.8417,24.6618 12.5,25.5C 8.16667,25.5 3.83333,25.5 -0.5,25.5C -0.5,19.8333 -0.5,14.1667 -0.5,8.5 Z"/></g>
<g><path style="opacity:1" fill="#fff2f3" d="M 25.5,17.5 C 25.5,20.1667 25.5,22.8333 25.5,25.5C 21.1667,25.5 16.8333,25.5 12.5,25.5C 12.8417,24.6618 13.5084,24.3284 14.5,24.5C 16.371,24.1412 17.871,23.1412 19,21.5C 19.3333,22.1667 19.6667,22.8333 20,23.5C 21.4389,21.7254 22.4389,19.7254 23,17.5C 23.3333,18.1667 23.6667,18.8333 24,19.5C 24.2784,18.5842 24.7784,17.9175 25.5,17.5 Z"/></g>
</svg>
