<?xml version="1.0" standalone="no"?>
<!DOCTYPE svg PUBLIC "-//W3C//DTD SVG 20010904//EN"
 "http://www.w3.org/TR/2001/REC-SVG-20010904/DTD/svg10.dtd">
<svg version="1.0" xmlns="http://www.w3.org/2000/svg"
 width="26.000000pt" height="26.000000pt" viewBox="0 0 26.000000 26.000000"
 preserveAspectRatio="xMidYMid meet">

<g transform="translate(0.000000,26.000000) scale(0.100000,-0.100000)"
fill="#000000" stroke="none">
<path d="M78 234 c-30 -16 -58 -61 -58 -92 0 -22 22 -34 45 -26 18 7 20 21 4
26 -19 6 8 47 38 59 18 7 40 5 79 -8 42 -13 57 -14 66 -5 9 9 9 12 0 12 -6 0
-28 11 -48 25 -41 28 -86 31 -126 9z"/>
<path d="M190 146 c0 -13 5 -26 11 -28 19 -6 -8 -47 -38 -59 -31 -11 -100 7
-116 32 -12 20 -51 13 -43 -8 3 -8 6 -17 6 -19 0 -2 4 -4 10 -4 5 0 26 -11 46
-25 59 -40 130 -28 168 29 17 28 22 81 6 71 -5 -3 -10 3 -10 14 0 14 -6 21
-20 21 -14 0 -20 -7 -20 -24z"/>
</g>
</svg>
