<?xml version="1.0" encoding="UTF-8"?>
<!DOCTYPE svg PUBLIC "-//W3C//DTD SVG 1.1//EN" "http://www.w3.org/Graphics/SVG/1.1/DTD/svg11.dtd">
<svg xmlns="http://www.w3.org/2000/svg" version="1.1" width="26px" height="26px" style="shape-rendering:geometricPrecision; text-rendering:geometricPrecision; image-rendering:optimizeQuality; fill-rule:evenodd; clip-rule:evenodd" xmlns:xlink="http://www.w3.org/1999/xlink">
<g><path style="opacity:1" fill="#d62230" d="M 25.5,5.5 C 25.5,5.83333 25.5,6.16667 25.5,6.5C 21.2427,7.27017 17.076,6.6035 13,4.5C 9.16073,4.84043 6.66073,6.84043 5.5,10.5C 7.91629,12.826 7.24962,14.1593 3.5,14.5C 0.840664,8.29091 2.84066,3.79091 9.5,1C 11.8333,0.333333 14.1667,0.333333 16.5,1C 19.4378,2.80778 22.4378,4.30778 25.5,5.5 Z"/></g>
<g><path style="opacity:1" fill="#f6f4f4" d="M 25.5,6.5 C 25.5,12.8333 25.5,19.1667 25.5,25.5C 16.8333,25.5 8.16667,25.5 -0.5,25.5C -0.5,22.8333 -0.5,20.1667 -0.5,17.5C 2.65221,19.7949 5.98555,21.9615 9.5,24C 15.877,25.2274 20.7103,23.0607 24,17.5C 24.6926,13.5554 24.1926,10.5554 22.5,8.5C 21.1667,8.5 19.8333,8.5 18.5,8.5C 21.8894,14.7285 20.0561,18.7285 13,20.5C 10.5,19.6667 8,18.8333 5.5,18C 4.17723,17.1841 3.51056,16.0174 3.5,14.5C 7.24962,14.1593 7.91629,12.826 5.5,10.5C 6.66073,6.84043 9.16073,4.84043 13,4.5C 17.076,6.6035 21.2427,7.27017 25.5,6.5 Z"/></g>
<g><path style="opacity:1" fill="#f6f6f6" d="M -0.5,-0.5 C 8.16667,-0.5 16.8333,-0.5 25.5,-0.5C 25.5,1.5 25.5,3.5 25.5,5.5C 22.4378,4.30778 19.4378,2.80778 16.5,1C 14.1667,0.333333 11.8333,0.333333 9.5,1C 2.84066,3.79091 0.840664,8.29091 3.5,14.5C 2.29208,15.2341 0.95875,15.5674 -0.5,15.5C -0.5,10.1667 -0.5,4.83333 -0.5,-0.5 Z"/></g>
<g><path style="opacity:1" fill="#da242f" d="M -0.5,17.5 C -0.5,16.8333 -0.5,16.1667 -0.5,15.5C 0.95875,15.5674 2.29208,15.2341 3.5,14.5C 3.51056,16.0174 4.17723,17.1841 5.5,18C 8,18.8333 10.5,19.6667 13,20.5C 20.0561,18.7285 21.8894,14.7285 18.5,8.5C 19.8333,8.5 21.1667,8.5 22.5,8.5C 24.1926,10.5554 24.6926,13.5554 24,17.5C 20.7103,23.0607 15.877,25.2274 9.5,24C 5.98555,21.9615 2.65221,19.7949 -0.5,17.5 Z"/></g>
</svg>
