<?xml version="1.0" standalone="no"?>
<!DOCTYPE svg PUBLIC "-//W3C//DTD SVG 20010904//EN"
 "http://www.w3.org/TR/2001/REC-SVG-20010904/DTD/svg10.dtd">
<svg version="1.0" xmlns="http://www.w3.org/2000/svg"
 width="26.000000pt" height="26.000000pt" viewBox="0 0 26.000000 26.000000"
 preserveAspectRatio="xMidYMid meet">

<g transform="translate(0.000000,26.000000) scale(0.100000,-0.100000)"
fill="#000000" stroke="none">
<path d="M49 219 c-14 -9 -14 -65 0 -102 11 -28 25 -35 36 -17 3 6 16 10 28
10 20 0 20 0 1 -16 -15 -13 -16 -15 -2 -10 12 4 18 -2 20 -22 2 -19 9 -27 23
-27 15 0 21 8 23 32 2 23 7 30 18 26 17 -6 18 1 1 19 -8 8 -10 26 -6 48 l6 35
2 -35 c1 -27 4 -31 11 -20 14 22 12 80 -2 82 -41 5 -149 3 -159 -3z"/>
</g>
</svg>
