<?xml version="1.0" encoding="UTF-8"?>
<!DOCTYPE svg PUBLIC "-//W3C//DTD SVG 1.1//EN" "http://www.w3.org/Graphics/SVG/1.1/DTD/svg11.dtd">
<svg xmlns="http://www.w3.org/2000/svg" version="1.1" width="26px" height="26px" style="shape-rendering:geometricPrecision; text-rendering:geometricPrecision; image-rendering:optimizeQuality; fill-rule:evenodd; clip-rule:evenodd" xmlns:xlink="http://www.w3.org/1999/xlink">
<g><path style="opacity:1" fill="#f3f3f4" d="M -0.5,-0.5 C 8.16667,-0.5 16.8333,-0.5 25.5,-0.5C 25.5,5.5 25.5,11.5 25.5,17.5C 24.8826,17.6107 24.3826,17.944 24,18.5C 22.583,16.6022 21.083,14.9355 19.5,13.5C 17.3544,13.3036 17.1878,12.3036 19,10.5C 19.6667,13.1667 20.3333,13.1667 21,10.5C 21.8141,8.09821 21.6474,5.76488 20.5,3.5C 15.6101,2.39314 10.6101,2.22648 5.5,3C 2.26178,5.56649 1.76178,8.73316 4,12.5C 4.19616,14.2861 5.02949,15.6195 6.5,16.5C 8.19134,14.7438 10.1913,14.2438 12.5,15C 11.0577,15.3768 10.0577,16.2101 9.5,17.5C 6.07821,17.9908 2.74488,17.9908 -0.5,17.5C -0.5,11.5 -0.5,5.5 -0.5,-0.5 Z"/></g>
<g><path style="opacity:1" fill="#396c95" d="M 19.5,13.5 C 19.4142,14.4959 19.7476,15.3292 20.5,16C 19.5509,16.6172 18.7175,16.4506 18,15.5C 17.7638,17.764 17.2638,19.9307 16.5,22C 15.2161,22.6838 14.0495,22.5171 13,21.5C 12.6667,19.8333 12.3333,18.1667 12,16.5C 11.3292,17.2524 10.4959,17.5858 9.5,17.5C 10.0577,16.2101 11.0577,15.3768 12.5,15C 10.1913,14.2438 8.19134,14.7438 6.5,16.5C 5.02949,15.6195 4.19616,14.2861 4,12.5C 1.76178,8.73316 2.26178,5.56649 5.5,3C 10.6101,2.22648 15.6101,2.39314 20.5,3.5C 21.6474,5.76488 21.8141,8.09821 21,10.5C 20.3333,13.1667 19.6667,13.1667 19,10.5C 17.1878,12.3036 17.3544,13.3036 19.5,13.5 Z"/></g>
<g><path style="opacity:1" fill="#f5f5f5" d="M 19.5,13.5 C 21.083,14.9355 22.583,16.6022 24,18.5C 24.3826,17.944 24.8826,17.6107 25.5,17.5C 25.5,20.1667 25.5,22.8333 25.5,25.5C 16.8333,25.5 8.16667,25.5 -0.5,25.5C -0.5,22.8333 -0.5,20.1667 -0.5,17.5C 2.74488,17.9908 6.07821,17.9908 9.5,17.5C 10.4959,17.5858 11.3292,17.2524 12,16.5C 12.3333,18.1667 12.6667,19.8333 13,21.5C 14.0495,22.5171 15.2161,22.6838 16.5,22C 17.2638,19.9307 17.7638,17.764 18,15.5C 18.7175,16.4506 19.5509,16.6172 20.5,16C 19.7476,15.3292 19.4142,14.4959 19.5,13.5 Z"/></g>
</svg>
