<?xml version="1.0" standalone="no"?>
<!DOCTYPE svg PUBLIC "-//W3C//DTD SVG 20010904//EN"
 "http://www.w3.org/TR/2001/REC-SVG-20010904/DTD/svg10.dtd">
<svg version="1.0" xmlns="http://www.w3.org/2000/svg"
 width="26.000000pt" height="26.000000pt" viewBox="0 0 26.000000 26.000000"
 preserveAspectRatio="xMidYMid meet">

<g transform="translate(0.000000,26.000000) scale(0.100000,-0.100000)"
fill="#000000" stroke="none">
<path d="M81 170 c-44 -73 -45 -86 -12 -129 l19 -25 66 18 c36 10 66 23 66 30
1 21 -75 175 -86 176 -7 0 -31 -32 -53 -70z m95 -31 c19 -39 34 -72 32 -74 -9
-7 -108 -32 -108 -26 0 15 33 171 36 171 2 0 20 -32 40 -71z"/>
</g>
</svg>
