<?xml version="1.0" encoding="UTF-8"?>
<!DOCTYPE svg PUBLIC "-//W3C//DTD SVG 1.1//EN" "http://www.w3.org/Graphics/SVG/1.1/DTD/svg11.dtd">
<svg xmlns="http://www.w3.org/2000/svg" version="1.1" width="26px" height="26px" style="shape-rendering:geometricPrecision; text-rendering:geometricPrecision; image-rendering:optimizeQuality; fill-rule:evenodd; clip-rule:evenodd" xmlns:xlink="http://www.w3.org/1999/xlink">
<g><path style="opacity:0.967" fill="#61dbfb" d="M 19.5,7.5 C 21.0764,8.14294 22.4097,9.14294 23.5,10.5C 21.7659,9.43795 20.0992,9.43795 18.5,10.5C 18.5,11.8333 18.5,13.1667 18.5,14.5C 20.0992,15.562 21.7659,15.562 23.5,14.5C 22.4097,15.8571 21.0764,16.8571 19.5,17.5C 20.7365,24.5756 18.4032,25.9089 12.5,21.5C 6.59682,25.9089 4.26348,24.5756 5.5,17.5C 3.92359,16.8571 2.59026,15.8571 1.5,14.5C 3.23411,15.562 4.90078,15.562 6.5,14.5C 6.5,13.1667 6.5,11.8333 6.5,10.5C 4.90078,9.43795 3.23411,9.43795 1.5,10.5C 2.59026,9.14294 3.92359,8.14294 5.5,7.5C 4.26348,0.424406 6.59682,-0.908927 12.5,3.5C 18.4032,-0.908927 20.7365,0.424406 19.5,7.5 Z M 5.5,7.5 C 5.6027,2.07717 7.6027,1.24383 11.5,5C 10.0217,7.03859 8.02173,7.87193 5.5,7.5 Z M 19.5,7.5 C 16.9783,7.87193 14.9783,7.03859 13.5,5C 17.3973,1.24383 19.3973,2.07717 19.5,7.5 Z M 6.5,10.5 C 6.51731,8.97189 7.18398,8.47189 8.5,9C 7.9558,9.71719 7.28913,10.2172 6.5,10.5 Z M 9.5,8.5 C 15.5211,7.57276 17.5211,9.9061 15.5,15.5C 9.14516,17.1635 7.14516,14.8302 9.5,8.5 Z M 18.5,10.5 C 17.7109,10.2172 17.0442,9.71719 16.5,9C 17.816,8.47189 18.4827,8.97189 18.5,10.5 Z M 6.5,14.5 C 7.28913,14.7828 7.9558,15.2828 8.5,16C 7.18398,16.5281 6.51731,16.0281 6.5,14.5 Z M 18.5,14.5 C 18.4827,16.0281 17.816,16.5281 16.5,16C 17.0442,15.2828 17.7109,14.7828 18.5,14.5 Z M 5.5,17.5 C 8.02173,17.1281 10.0217,17.9614 11.5,20C 7.6027,23.7562 5.6027,22.9228 5.5,17.5 Z M 19.5,17.5 C 19.3973,22.9228 17.3973,23.7562 13.5,20C 14.9783,17.9614 16.9783,17.1281 19.5,17.5 Z"/></g>
<g><path style="opacity:0.801" fill="#60dbfb" d="M 1.5,10.5 C 1.5,11.8333 1.5,13.1667 1.5,14.5C 0.833333,14.1667 0.166667,13.8333 -0.5,13.5C -0.5,12.8333 -0.5,12.1667 -0.5,11.5C 0.166667,11.1667 0.833333,10.8333 1.5,10.5 Z"/></g>
<g><path style="opacity:1" fill="#60dbfa" d="M 10.5,10.5 C 11.8333,10.5 13.1667,10.5 14.5,10.5C 14.5,11.8333 14.5,13.1667 14.5,14.5C 13.1667,14.5 11.8333,14.5 10.5,14.5C 10.5,13.1667 10.5,11.8333 10.5,10.5 Z"/></g>
<g><path style="opacity:0.837" fill="#61dbfb" d="M 23.5,10.5 C 24.1667,10.8333 24.8333,11.1667 25.5,11.5C 25.5,12.1667 25.5,12.8333 25.5,13.5C 24.8333,13.8333 24.1667,14.1667 23.5,14.5C 23.5,13.1667 23.5,11.8333 23.5,10.5 Z"/></g>
</svg>
